# xmcd
#
# Track frame offsets:
#	150
#	13118
#	31220
#	44590
#	56302
#	71763
#	87064
#	99811
#	116196
#	132537
#	149789
#	170921
#	182677
#	197901
#	214884
#
# Disc length: 3013 seconds
#
# Revision: 1
# Processed by: cddbd v1.5.1PL0 Copyright (c) Steve Scherf et al.
# Submitted via: audiograbber 1.80
#
DISCID=e50bc30f
DTITLE=Mala muzika Nause Pepika - Andulko, ty jsi ma mila
DYEAR=1900
DGENRE=
TTITLE0=Andulko, ty jsi ma mila
TTITLE1=Pres sire lesy sumavske
TTITLE2=Hradesicky kostelicek
TTITLE3=Vlastovicky
TTITLE4=Az pomasirujem
TTITLE5=Zalo devce zalo travu
TTITLE6=Ta nase luka
TTITLE7=Slunicko zachazi
TTITLE8=Myslivecek vysel z lesa
TTITLE9=Do lesicka na cekanou
TTITLE10=V te krasne Sumave
TTITLE11=V zelenem haji
TTITLE12=Tam kde je svatobor
TTITLE13=Toulam se sumavou
TTITLE14=v posumavskem kraji
EXTD=
EXTT0=
EXTT1=
EXTT2=
EXTT3=
EXTT4=
EXTT5=
EXTT6=
EXTT7=
EXTT8=
EXTT9=
EXTT10=
EXTT11=
EXTT12=
EXTT13=
EXTT14=
PLAYORDER=
